<?xml version="1.0" encoding="utf-8"?>
<svg xmlns="http://www.w3.org/2000/svg" id="flag-icons-tn" viewBox="0 0 512 512" xmlns:bx="https://boxy-svg.com">
  <defs>
    <linearGradient id="gradient-1" bx:pinned="true">
      <stop offset="0" style="stop-color: rgb(200, 200, 200);"/>
      <stop offset="1" style="stop-color: rgb(60, 60, 60);"/>
    </linearGradient>
  </defs>
  <g id="svg-1" transform="matrix(1, 0, 0, 1, -296.383057, 643.481506)">
    <g transform="matrix(0.9375, 0, 0, 0.9375, -327.178558, -20.511913)"/>
    <g id="Layer_x0020_1" transform="matrix(0.11731, 0, 0, 0.11731, 249.589661, -710.676208)">
      <g id="_1421344023328" transform="matrix(1, 0, 0, 1, 535.505737, 709.183289)">
        <path fill-rule="nonzero" d="M 4030.06 2540.77 C 3756.82 3636.78 2646.74 4303.79 1550.6 4030.48 C 454.92 3757.24 -212.09 2647.09 61.27 1551.17 C 334.39 455.04 1444.47 -212.02 2540.27 61.22 C 3636.33 334.46 4303.3 1444.73 4030.03 2540.79 L 4030.05 2540.77 L 4030.06 2540.77 Z" style="fill: url(&quot;#gradient-1&quot;); transform-box: fill-box; transform-origin: 50% 50%;" transform="matrix(0, 1, -1, 0, 0.000205, -0.000044)"/>
        <text style="fill: rgb(255, 255, 255); font-family: Arial, sans-serif; font-size: 2689.5px; white-space: pre;" x="400.784" y="2875.47">Ag</text>
        <text style="fill: rgb(219, 226, 230); font-family: Arial, sans-serif; font-size: 2767.8px; white-space: pre;" transform="matrix(0.961017, 0, 0, 0.973442, 70.458397, 75.229187)" x="454.265" y="2880.94">Ag</text>
      </g>
    </g>
  </g>
</svg>