<svg version="1.2" xmlns="http://www.w3.org/2000/svg" viewBox="0 0 35 41" width="35" height="41">
	<defs>
		<linearGradient id="g1" x2="1" gradientUnits="userSpaceOnUse" gradientTransform="matrix(29.718,-32.74,23.587,21.41,6.101,33.834)">
			<stop offset="0" stop-color="#ffffff"/>
			<stop offset="1" stop-color="#ffffff"/>
		</linearGradient>
	</defs>
	<style>
		.s0 { fill: url(#g1) } 
	</style>
	<path fill-rule="evenodd" class="s0" d="m21.47 0.92l10.64 2.57c2.02 0.47 3.29 2.53 2.78 4.55l-5.58 23.28c-0.48 2.02-2.5 3.28-4.52 2.81l-5.62-1.37-1.09 4.51c-0.48 2.02-2.5 3.29-4.52 2.81l-10.65-2.57c-2.05-0.47-3.29-2.53-2.81-4.55l5.58-23.28c0.48-2.02 2.54-3.28 4.56-2.81l5.6 1.37-0.64 2.64q0 0.03 0 0.03-0.07 0.14-0.1 0.31l-3.94 16.47c-0.38 1.64 0.65 3.32 2.29 3.7l2.74 0.65 2.98 0.72 0.69-2.78q0.03-0.1 0.03-0.2l3.94-16.47c0.41-1.68-0.62-3.32-2.26-3.73l-2.74-0.65q-0.07 0-0.1-0.04l-2.87-0.68 1.05-4.48c0.48-2.02 2.54-3.29 4.56-2.81zm-5.62 7.32l0.01-0.03h-0.01l-0.01 0.03z"/>
</svg>